<svg xmlns="http://www.w3.org/2000/svg" viewBox="0 10.449999809265137 108 45.20000076293945" data-asc="0.95"><g fill="#000000"><g fill="#000000" transform="translate(0, 0)"><path d="M46.60 55.65Q45.45 55.65 44.45 55.05Q41.55 53.10 40.10 46.95Q39.75 45.45 39.52 43.92Q39.30 42.40 39.10 40.85Q38.65 36.20 38.65 31.65Q38.65 31.05 38.65 30.43Q38.65 29.80 38.65 29.25Q36.90 32.10 34.90 34.83Q32.90 37.55 30.95 39.90Q29.60 41.50 27.78 43.30Q25.95 45.10 23.93 46.60Q21.90 48.10 19.90 49Q19.10 49.35 18.35 49.52Q17.60 49.70 16.95 49.70Q15.40 49.70 14.48 48.75Q13.55 47.80 13.55 46.15Q13.55 44.55 14.45 42.55Q14.95 41.65 15.95 39.80Q16.95 37.95 18.20 35.65L23.50 26.05Q24.60 24.10 25.80 21.80Q27 19.50 27.98 17.40Q28.95 15.30 29.25 13.80Q28.60 14.90 27.80 16.13Q27 17.35 26.15 18.60L24.75 20.65Q23.55 22.40 22.23 24.35Q20.90 26.30 19.55 28.10Q18.20 29.90 16.90 31.25Q11.15 37.45 4.50 37.45Q2.55 37.45 1.27 36.05Q0 34.65 0 32.95Q0 31.95 0.45 31.15Q0.90 30.05 2.05 28.80Q3.20 27.55 4.60 26.45Q6 25.35 7.10 24.90Q7.35 24.75 7.45 24.75Q7.75 24.75 7.75 25.05Q7.75 25.35 7.40 25.55Q6.85 26.15 6.03 27.27Q5.20 28.40 4.43 29.70Q3.65 31 3.20 32.25Q2.85 33.45 2.85 34.35Q2.85 36.15 4.30 36.15Q6.25 36.15 8.50 34.80Q10.80 33.40 13.18 31.20Q15.55 29 17.85 26.25Q19 24.85 20.13 23.50Q21.25 22.15 22.25 20.85Q22.85 20.05 23.55 19.20Q24.25 18.35 24.90 17.45Q26.10 15.90 27.20 14.52Q28.30 13.15 28.95 12.35Q29.10 12.20 29.25 12.05Q29.40 11.90 29.50 11.70Q29.75 11.40 30 11.40Q30.30 11.40 30.60 11.75Q31.95 13.25 31.95 15.65Q31.95 19.60 28.30 26.10Q27.40 27.70 26.30 29.60Q25.20 31.50 24.10 33.35Q22.75 35.65 21.60 37.60Q20.45 39.55 19.95 40.55Q19.50 41.55 18.95 42.75Q18.40 43.95 18 45.08Q17.60 46.20 17.60 46.95Q17.60 47.80 18.30 47.80Q18.75 47.80 19.65 47.40Q20.95 46.85 22.43 45.63Q23.90 44.40 25.38 42.88Q26.85 41.35 28.15 39.85Q29.45 38.35 30.30 37.25Q32.50 34.50 34.75 31.50Q37 28.50 38.85 25.45Q38.90 23.70 39.08 22.47Q39.25 21.25 39.35 20.55Q39.60 19.55 40.20 19.13Q40.80 18.70 41.45 18.70Q42.30 18.70 42.98 19.40Q43.65 20.10 43.40 21.40Q43.15 22.80 42.83 25.60Q42.50 28.40 42.28 31.75Q42.05 35.10 42.05 38.30Q42.05 38.95 42.05 39.55Q42.05 40.15 42.10 40.75Q42.55 54 46.90 54Q47.35 54 47.85 53.85Q49.15 53.50 50.55 52Q52 50.45 53.30 48.13Q54.60 45.80 55.70 42.90Q56.25 41.45 56.73 39.88Q57.20 38.30 57.55 36.65Q58.55 31.90 58.55 27.55Q58.55 26.45 58.48 25.40Q58.40 24.35 58.30 23.35Q58.10 22.10 57.75 20.55Q57.40 19 56.70 17.70Q56 16.40 54.85 16.40Q53.50 16.40 52.05 18.15Q51.75 18.60 51.45 18.60Q51.20 18.60 51.20 18.20Q51.20 17.80 51.40 17.35Q51.55 16.90 52.18 16.30Q52.80 15.70 53.58 15.20Q54.35 14.70 54.90 14.55Q55.45 14.40 55.95 14.35Q56.45 14.30 56.90 14.30Q62.40 14.30 62.40 23.05Q62.40 24.35 62.25 25.95Q62.05 28.30 61.58 30.82Q61.10 33.35 60.50 35.73Q59.90 38.10 59.30 40.05Q58.70 42 58.25 43.25Q57.15 46 55.60 48.55Q54.05 51.10 52.20 52.92Q50.35 54.75 48.20 55.40Q47.80 55.55 47.40 55.60Q47 55.65 46.60 55.65ZM64.80 54.95Q62.70 54.95 61.58 53.27Q60.45 51.60 60.45 48.65Q60.45 47.65 60.60 46.55Q60.95 43.75 62.30 40.80Q63.65 37.85 65.95 34.90Q67.60 32.75 69.65 31.57Q71.70 30.40 73.65 30.40Q75.05 30.40 76.10 30.95Q77.40 31.70 77.40 33.50Q77.40 34.80 76.50 36.38Q75.60 37.95 73.40 39.40Q70.60 41.15 68.67 41.77Q66.75 42.40 65.60 42.50Q65.25 43.05 64.88 44.17Q64.50 45.30 64.22 46.52Q63.95 47.75 63.85 48.70Q63.85 48.90 63.83 49.13Q63.80 49.35 63.80 49.60Q63.80 53 65.95 53Q67.10 53 68.58 52.15Q70.05 51.30 71.47 50.10Q72.90 48.90 74.03 47.77Q75.15 46.65 75.60 46.10L79.30 41.80L80.30 40.65Q80.55 40.35 80.80 40.05Q81.05 39.75 81.30 39.50Q81.50 39.25 81.75 39.25Q82.30 39.25 82.30 39.85Q82.30 40.15 82 40.55Q81.50 41.25 80.88 42Q80.25 42.75 79.70 43.40L78 45.45Q77 46.65 75.85 48.02Q74.70 49.40 73.60 50.45Q68.95 54.95 64.80 54.95M66.40 41.10Q67.40 40.85 68.78 40.05Q70.15 39.25 71.42 38.35Q72.70 37.45 73.40 36.85Q74.45 36 75 34.95Q75.55 33.90 75.55 33.15Q75.55 32.10 74.70 32.10Q74.30 32.10 73.85 32.30Q72.65 32.85 71.25 34.40Q69.85 35.95 68.58 37.80Q67.30 39.65 66.40 41.10ZM83.50 51.80Q79.60 51.80 79.60 47.35Q79.60 46.05 79.97 44.35Q80.35 42.65 81 40.65Q81.65 38.90 82.67 36.63Q83.70 34.35 84.80 32.20Q82.05 33.10 80.15 33.10Q79.40 33.10 78.95 32.95Q78 32.75 78 32.25Q78 32 78.33 31.85Q78.65 31.70 79.25 31.80Q79.45 31.85 79.63 31.85Q79.80 31.85 80 31.85Q82.35 31.85 85.65 30.45Q91.55 19.90 98.70 13.25Q100 11.95 101.72 11.20Q103.45 10.45 104.95 10.45Q106.25 10.45 107.13 11.17Q108 11.90 108 13.50Q108 14.70 107.40 16.05Q105.95 19.15 102.05 22.45Q101.10 23.25 100.10 24.02Q99.10 24.80 98.05 25.50Q93.80 28.45 89.30 30.45Q88.40 32.05 87.50 33.90Q86.60 35.75 85.75 37.80Q85.40 38.60 85.05 39.50Q84.70 40.40 84.40 41.25L83.55 43.35Q83.10 44.45 82.75 45.75Q82.40 47.05 82.40 48.15Q82.40 49.10 82.72 49.70Q83.05 50.30 83.80 50.30Q84.95 50.30 86.17 48.83Q87.40 47.35 88.35 45.70Q89 44.55 89.58 43.23Q90.15 41.90 90.53 40.67Q90.90 39.45 90.95 38.75L91 38.25Q89.65 37.70 89.65 35.80Q89.65 34.50 90.17 33.60Q90.70 32.70 91.45 32.70Q93.05 32.70 93.05 35.60Q93.05 36.10 93 36.73Q92.95 37.35 92.85 38.05Q93.20 38.15 93.83 38.25Q94.45 38.35 94.90 38.35Q96.60 38.35 97.78 37.30Q98.95 36.25 100.05 34.80Q100.25 34.55 100.50 34.55Q100.75 34.55 100.90 34.80Q101.05 35.05 101.05 35.40Q101.05 35.70 100.90 36Q98.30 39.85 94.95 39.85Q93.95 39.85 92.65 39.45L92.40 40.30Q92.35 40.55 92.28 40.77Q92.20 41 92.15 41.20Q91.70 42.40 90.83 44.17Q89.95 45.95 88.80 47.70Q87.65 49.45 86.30 50.63Q84.95 51.80 83.50 51.80M102.90 13Q101.85 13.60 100.20 15.27Q98.55 16.95 96.70 19.25Q94.85 21.55 93.08 23.97Q91.30 26.40 90 28.55Q93.30 26.80 96.53 24.72Q99.75 22.65 102.28 20.15Q104.80 17.65 106.10 14.55Q106.40 13.85 106.40 13.35Q106.40 12.20 105.20 12.20Q104.20 12.20 102.90 13Z"/></g></g></svg>